<svg width="20" height="19" viewBox="0 0 20 19" fill="none" xmlns="http://www.w3.org/2000/svg">
<g id="Group 164">
<path id="path690" d="M19.3332 14.8281H18.3331C17.9649 14.8281 17.6664 14.529 17.6666 14.1607C17.6668 13.7932 17.9653 13.4948 18.3333 13.4948H18.3334H18.6666V1.49533H11.5619L8.74263 3.68858C8.62563 3.77941 8.48154 3.82857 8.3333 3.82857H1.33333V13.4948H1.99999C2.36816 13.4948 2.66665 13.7932 2.66665 14.1615C2.66665 14.5298 2.36816 14.8281 1.99999 14.8281H0.666664C0.298499 14.8281 0 14.5298 0 14.1615V3.16193C0 2.79361 0.298499 2.49529 0.666664 2.49529H8.10463L10.9239 0.302047C11.0409 0.211217 11.185 0.162054 11.3333 0.162054H19.3332C19.7014 0.162054 19.9999 0.460375 19.9999 0.828694V14.1615C19.9999 14.3381 19.9296 14.5081 19.8046 14.6331C19.6796 14.7581 19.51 14.8281 19.3332 14.8281Z" fill="white"/>
<path id="path692" d="M19.3331 3.83008H8.33317C7.965 3.83008 7.6665 3.53176 7.6665 3.16344C7.6665 2.79512 7.965 2.4968 8.33317 2.4968H19.3331C19.7013 2.4968 19.9998 2.79512 19.9998 3.16344C19.9998 3.53176 19.7013 3.83008 19.3331 3.83008Z" fill="white"/>
<path id="path694" d="M10.0002 13.1621C9.63199 13.1621 9.3335 12.8638 9.3335 12.4955V10.4956C9.3335 10.1272 9.63199 9.82891 10.0002 9.82891C10.3683 9.82891 10.6668 10.1272 10.6668 10.4956V12.4955C10.6668 12.8638 10.3683 13.1621 10.0002 13.1621Z" fill="white"/>
<path id="path698" d="M15.3333 15.1621C14.9651 15.1621 14.6666 14.8638 14.6666 14.4955V13.1622H5.33333V14.4955C5.33333 14.8638 5.03483 15.1621 4.66666 15.1621C4.2985 15.1621 4 14.8638 4 14.4955V12.4956C4 12.1272 4.2985 11.8289 4.66666 11.8289H15.3333C15.7014 11.8289 15.9999 12.1272 15.9999 12.4956V14.4955C15.9999 14.8638 15.7014 15.1621 15.3333 15.1621Z" fill="white"/>
<path id="path700" d="M4.99999 15.4956C4.63233 15.4956 4.33333 15.7947 4.33333 16.1622C4.33333 16.5297 4.63233 16.8288 4.99999 16.8288C5.36766 16.8288 5.66665 16.5297 5.66665 16.1622C5.66665 15.7947 5.36766 15.4956 4.99999 15.4956ZM4.99999 18.1621C3.89716 18.1621 3 17.2646 3 16.1622C3 15.0597 3.89716 14.1623 4.99999 14.1623C6.10282 14.1623 6.99998 15.0597 6.99998 16.1622C6.99998 17.2646 6.10282 18.1621 4.99999 18.1621Z" fill="white"/>
<path id="path702" d="M15 15.4956C14.6323 15.4956 14.3333 15.7947 14.3333 16.1622C14.3333 16.5297 14.6323 16.8288 15 16.8288C15.3677 16.8288 15.6667 16.5297 15.6667 16.1622C15.6667 15.7947 15.3677 15.4956 15 15.4956ZM15 18.1621C13.8972 18.1621 13 17.2646 13 16.1622C13 15.0597 13.8972 14.1623 15 14.1623C16.1028 14.1623 17 15.0597 17 16.1622C17 17.2646 16.1028 18.1621 15 18.1621Z" fill="white"/>
<path id="path704" d="M9.99999 15.4956C9.63233 15.4956 9.33333 15.7947 9.33333 16.1622C9.33333 16.5297 9.63233 16.8288 9.99999 16.8288C10.3677 16.8288 10.6667 16.5297 10.6667 16.1622C10.6667 15.7947 10.3677 15.4956 9.99999 15.4956ZM9.99999 18.1621C8.89716 18.1621 8 17.2646 8 16.1622C8 15.0597 8.89716 14.1623 9.99999 14.1623C11.1028 14.1623 12 15.0597 12 16.1622C12 17.2646 11.1028 18.1621 9.99999 18.1621Z" fill="white"/>
</g>
</svg>
