<svg width="20" height="21" viewBox="0 0 20 21" fill="none" xmlns="http://www.w3.org/2000/svg">
<g id="Group 163">
<g id="g74">
<path id="path76" d="M19.3335 20.2832H0.666471C0.297349 20.2832 0 19.9844 0 19.6168C0 19.2476 0.297349 18.9503 0.666471 18.9503H19.3335C19.7012 18.9503 20 19.2476 20 19.6168C20 19.9844 19.7012 20.2832 19.3335 20.2832Z" fill="white"/>
</g>
<g id="g78">
<path id="path80" d="M1.33294 16.2823H18.6671V13.6151H1.33294V16.2823ZM19.3335 17.6152H0.666471C0.297349 17.6152 0 17.3164 0 16.9488V12.9486C0 12.581 0.297349 12.2822 0.666471 12.2822H19.3335C19.7012 12.2822 20 12.581 20 12.9486V16.9488C20 17.3164 19.7012 17.6152 19.3335 17.6152Z" fill="white"/>
</g>
<g id="g82">
<path id="path84" d="M1.33294 10.2843H18.6671V7.61703H1.33294V10.2843ZM19.3335 11.6172H0.666471C0.297349 11.6172 0 11.3184 0 10.9507V6.95058C0 6.58147 0.297349 6.28414 0.666471 6.28414H19.3335C19.7012 6.28414 20 6.58147 20 6.95058V10.9507C20 11.3184 19.7012 11.6172 19.3335 11.6172Z" fill="white"/>
</g>
<g id="g86">
<path id="path88" d="M1.33294 4.28479H18.6671V1.619H1.33294V4.28479ZM19.3335 5.61914H0.666471C0.297349 5.61914 0 5.32034 0 4.95123V0.951092C0 0.583447 0.297349 0.284645 0.666471 0.284645H19.3335C19.7012 0.284645 20 0.583447 20 0.951092V4.95123C20 5.32034 19.7012 5.61914 19.3335 5.61914Z" fill="white"/>
</g>
<g id="g90">
<path id="path92" d="M9.99925 20.2832C9.63189 20.2832 9.3335 19.9834 9.3335 19.6161V16.9489C9.3335 16.5816 9.63189 16.2832 9.99925 16.2832C10.368 16.2832 10.6664 16.5816 10.6664 16.9489V19.6161C10.6664 19.9834 10.368 20.2832 9.99925 20.2832Z" fill="white"/>
</g>
<g id="g94">
<path id="path96" d="M5.33326 15.6191H3.3325C2.96434 15.6191 2.6665 15.3199 2.6665 14.9518C2.6665 14.5836 2.96434 14.2858 3.3325 14.2858H5.33326C5.70142 14.2858 5.99925 14.5836 5.99925 14.9518C5.99925 15.3199 5.70142 15.6191 5.33326 15.6191Z" fill="white"/>
</g>
<g id="g98">
<path id="path100" d="M5.33326 9.61719H3.3325C2.96434 9.61719 2.6665 9.31936 2.6665 8.95122C2.6665 8.58169 2.96434 8.28387 3.3325 8.28387H5.33326C5.70142 8.28387 5.99925 8.58169 5.99925 8.95122C5.99925 9.31936 5.70142 9.61719 5.33326 9.61719Z" fill="white"/>
</g>
<g id="g102">
<path id="path104" d="M5.33326 3.61914H3.3325C2.96434 3.61914 2.6665 3.31993 2.6665 2.95178C2.6665 2.58364 2.96434 2.28581 3.3325 2.28581H5.33326C5.70142 2.28581 5.99925 2.58364 5.99925 2.95178C5.99925 3.31993 5.70142 3.61914 5.33326 3.61914Z" fill="white"/>
</g>
</g>
</svg>
