<svg width="20" height="21" viewBox="0 0 20 21" fill="none" xmlns="http://www.w3.org/2000/svg">
<g id="Group 133">
<g id="g322">
<path id="path324" d="M8.00023 1.33281C4.32449 1.33281 1.33308 4.3236 1.33308 7.99971C1.33308 11.6757 4.32449 14.6666 8.00023 14.6666C11.676 14.6666 14.6674 11.6757 14.6674 7.99971C14.6674 4.3236 11.676 1.33281 8.00023 1.33281ZM8.00023 16C3.58935 16 0 12.4111 0 7.99971C0 3.58813 3.58935 -0.000582424 8.00023 -0.000582424C12.4111 -0.000582424 16.0005 3.58813 16.0005 7.99971C16.0005 12.4111 12.4111 16 8.00023 16Z" fill="white"/>
</g>
<g id="g326">
<path id="path328" d="M19.3325 20.002C19.1624 20.002 18.9922 19.9368 18.8616 19.8065L12.8612 13.8063C12.6016 13.5461 12.6016 13.124 12.8612 12.8638C13.1224 12.6032 13.5435 12.6032 13.8048 12.8638L19.8052 18.864C20.0647 19.1242 20.0647 19.5463 19.8052 19.8065C19.6746 19.9368 19.5044 20.002 19.3325 20.002Z" fill="white"/>
</g>
<g id="g330">
<path id="path332" d="M2.99923 10.6699C2.63027 10.6699 2.33252 10.3714 2.33252 10.0033V8.0032C2.33252 7.63507 2.63027 7.33652 2.99923 7.33652C3.36818 7.33652 3.66594 7.63507 3.66594 8.0032V10.0033C3.66594 10.3714 3.36818 10.6699 2.99923 10.6699Z" fill="white"/>
</g>
<g id="g334">
<path id="path336" d="M4.9984 10.666C4.62991 10.666 4.33154 10.3675 4.33154 9.99934V6.33251C4.33154 5.96436 4.62991 5.66583 4.9984 5.66583C5.36689 5.66583 5.66528 5.96436 5.66528 6.33251V9.99934C5.66528 10.3675 5.36689 10.666 4.9984 10.666Z" fill="white"/>
</g>
<g id="g338">
<path id="path340" d="M6.99949 10.6699C6.63151 10.6699 6.33252 10.3713 6.33252 10.0032V5.00294C6.33252 4.63481 6.63151 4.33633 6.99949 4.33633C7.36747 4.33633 7.66644 4.63481 7.66644 5.00294V10.0032C7.66644 10.3713 7.36747 10.6699 6.99949 10.6699Z" fill="white"/>
</g>
<g id="g342">
<path id="path344" d="M8.999 10.666C8.63159 10.666 8.33203 10.3675 8.33203 9.99939V6.33249C8.33203 5.96442 8.63159 5.66586 8.999 5.66586C9.36807 5.66586 9.66598 5.96442 9.66598 6.33249V9.99939C9.66598 10.3675 9.36807 10.666 8.999 10.666Z" fill="white"/>
</g>
<g id="g346">
<path id="path348" d="M10.9985 10.666C10.63 10.666 10.3315 10.3676 10.3315 9.99945V4.99924C10.3315 4.63095 10.63 4.33253 10.9985 4.33253C11.3669 4.33253 11.6654 4.63095 11.6654 4.99924V9.99945C11.6654 10.3676 11.3669 10.666 10.9985 10.666Z" fill="white"/>
</g>
<g id="g350">
<path id="path352" d="M12.9998 10.666C12.632 10.666 12.333 10.3674 12.333 9.99926V7.33253C12.333 6.96438 12.632 6.66576 12.9998 6.66576C13.3676 6.66576 13.6666 6.96438 13.6666 7.33253V9.99926C13.6666 10.3674 13.3676 10.666 12.9998 10.666Z" fill="white"/>
</g>
</g>
</svg>
