<svg width="20" height="21" viewBox="0 0 20 21" fill="none" xmlns="http://www.w3.org/2000/svg">
<g id="Group 134">
<g id="g1228">
<path id="path1230" d="M8.33305 4.20433C5.62517 4.94196 3.66634 7.44369 3.66634 10.3133C3.66634 10.8637 3.73587 11.4028 3.87371 11.925L5.70167 10.8703C5.67824 10.6887 5.66639 10.5024 5.66639 10.3133C5.66639 8.55578 6.74041 6.97796 8.33305 6.31466V4.20433ZM3.49971 13.5762C3.42641 13.5762 3.35284 13.5649 3.28208 13.5404C3.09946 13.4774 2.95324 13.3381 2.88117 13.1584C2.51742 12.2552 2.33301 11.2974 2.33301 10.3133C2.33301 6.52259 5.15868 3.26065 8.90558 2.72719C9.09733 2.69896 9.29069 2.75729 9.43652 2.88337C9.58255 3.01038 9.66638 3.19385 9.66638 3.38672V6.78697C9.66638 7.08522 9.46795 7.34772 9.1807 7.42864C7.89648 7.79087 6.99972 8.97728 6.99972 10.3133C6.99972 10.5692 7.03011 10.8129 7.09033 11.0377C7.16823 11.3294 7.04074 11.6371 6.77946 11.7876L3.83288 13.4877C3.73051 13.547 3.61544 13.5762 3.49971 13.5762Z" fill="white"/>
</g>
<g id="g1232">
<path id="path1234" d="M14.2982 10.8703L16.1262 11.925C16.264 11.4028 16.3335 10.8637 16.3335 10.3133C16.3335 7.44369 14.3747 4.94196 11.6668 4.20433V6.31466C13.2594 6.97796 14.3335 8.55578 14.3335 10.3133C14.3335 10.5024 14.3216 10.6887 14.2982 10.8703ZM16.5002 13.5762C16.3844 13.5762 16.2694 13.547 16.167 13.4877L13.2204 11.7876C12.9592 11.6371 12.8316 11.3294 12.9096 11.0377C12.9698 10.8129 13.0002 10.5692 13.0002 10.3133C13.0002 8.97728 12.1033 7.79087 10.8192 7.42864C10.5319 7.34772 10.3335 7.08522 10.3335 6.78697V3.38672C10.3335 3.19385 10.4173 3.01038 10.5634 2.88337C10.7092 2.75729 10.903 2.69896 11.0942 2.72719C14.8412 3.26065 17.6669 6.52259 17.6669 10.3133C17.6669 11.2974 17.4825 12.2552 17.1186 13.1584C17.0466 13.3381 16.9004 13.4774 16.7177 13.5404C16.647 13.5649 16.5734 13.5762 16.5002 13.5762Z" fill="white"/>
</g>
<g id="g1236">
<path id="path1238" d="M5.54064 14.8094C6.72018 15.9831 8.30707 16.6432 9.99968 16.6432C11.6922 16.6432 13.2791 15.9831 14.4586 14.8094L12.6291 13.7531C11.8759 14.3303 10.9593 14.6435 9.99968 14.6435C9.03997 14.6435 8.12351 14.3303 7.37022 13.7531L5.54064 14.8094ZM9.99968 17.9766C7.63373 17.9766 5.43819 16.9106 3.97573 15.0521C3.85606 14.9003 3.80841 14.7035 3.84512 14.5138C3.88165 14.3241 3.99903 14.1591 4.16652 14.0629L7.11306 12.3624C7.37128 12.2141 7.69638 12.2547 7.9103 12.4612C8.47474 13.0083 9.21674 13.3101 9.99968 13.3101C10.7825 13.3101 11.5246 13.0083 12.089 12.4612C12.3029 12.2547 12.6283 12.2141 12.8862 12.3624L15.8328 14.0629C16.0003 14.1591 16.1176 14.3241 16.1542 14.5138C16.1909 14.7035 16.1432 14.9003 16.0235 15.0521C14.5612 16.9106 12.3655 17.9766 9.99968 17.9766Z" fill="white"/>
</g>
<path id="path1242" d="M15.0001 3.97852C14.8295 3.97852 14.6588 3.91382 14.5288 3.78348C14.2684 3.5228 14.2684 3.10133 14.5288 2.84065L16.1954 1.1738C16.3204 1.04917 16.49 0.978768 16.6668 0.978768H19.3334C19.7016 0.978768 20.0001 1.2775 20.0001 1.64569C20.0001 2.01388 19.7016 2.31167 19.3334 2.31167H16.943L15.4715 3.78348C15.3414 3.91382 15.1707 3.97852 15.0001 3.97852Z" fill="white"/>
<g id="g1244">
<path id="path1246" d="M19.3329 4.31445H17.9996C17.6315 4.31445 17.333 4.01581 17.333 3.64768C17.333 3.27954 17.6315 2.9809 17.9996 2.9809H19.3329C19.7011 2.9809 19.9996 3.27954 19.9996 3.64768C19.9996 4.01581 19.7011 4.31445 19.3329 4.31445Z" fill="white"/>
</g>
<g id="g1248">
<path id="path1250" d="M4.99995 3.97852C4.82936 3.97852 4.65858 3.91382 4.52861 3.78348L3.05713 2.31167H0.666666C0.298463 2.31167 0 2.01388 0 1.64569C0 1.2775 0.298463 0.978768 0.666666 0.978768H3.33333C3.51001 0.978768 3.67965 1.04917 3.80458 1.1738L5.47129 2.84065C5.7317 3.10133 5.7317 3.5228 5.47129 3.78348C5.34132 3.91382 5.17054 3.97852 4.99995 3.97852Z" fill="white"/>
</g>
<g id="g1252">
<path id="path1254" d="M1.99993 4.31445H0.666612C0.298463 4.31445 0 4.01581 0 3.64768C0 3.27954 0.298463 2.9809 0.666612 2.9809H1.99993C2.36817 2.9809 2.66664 3.27954 2.66664 3.64768C2.66664 4.01581 2.36817 4.31445 1.99993 4.31445Z" fill="white"/>
</g>
<g id="g1256">
<path id="path1258" d="M18.6664 20.3125H15.9998C15.823 20.3125 15.6535 20.2427 15.5285 20.1175L13.8618 18.4509C13.6014 18.1903 13.6014 17.7679 13.8618 17.5082C14.1218 17.2476 14.5443 17.2476 14.8044 17.5082L16.2759 18.9789H18.6664C19.0346 18.9789 19.3331 19.2778 19.3331 19.6457C19.3331 20.0144 19.0346 20.3125 18.6664 20.3125Z" fill="white"/>
</g>
<g id="g1260">
<path id="path1262" d="M18.6665 18.3125H17.3332C16.9651 18.3125 16.6665 18.0139 16.6665 17.6453C16.6665 17.2775 16.9651 16.9789 17.3332 16.9789H18.6665C19.0347 16.9789 19.3332 17.2775 19.3332 17.6453C19.3332 18.0139 19.0347 18.3125 18.6665 18.3125Z" fill="white"/>
</g>
</g>
</svg>
