<svg width="20" height="21" viewBox="0 0 20 21" fill="none" xmlns="http://www.w3.org/2000/svg">
<g id="Group 1028">
<g id="g34">
<path id="path36" d="M4.33331 5.38571C2.67917 5.38571 1.33331 6.75567 1.33331 8.44065C1.33331 10.1244 2.67917 11.4944 4.33331 11.4944H16.3333C17.6199 11.4944 18.6667 10.4274 18.6667 9.11658C18.6667 7.85284 17.6974 6.80997 16.46 6.74117C16.2825 6.73152 16.1167 6.65186 15.9991 6.51909C15.8808 6.38632 15.8208 6.21251 15.8308 6.03629C15.8333 5.99163 15.8333 5.94696 15.8333 5.9023C15.8333 4.59149 14.7866 3.5245 13.5 3.5245C13.0774 3.5245 12.6633 3.64158 12.3017 3.86367C12.1292 3.96868 11.9191 3.9904 11.73 3.92281C11.5409 3.85522 11.3917 3.70556 11.3242 3.51606C10.8983 2.30784 9.76335 1.49552 8.50005 1.49552C6.84579 1.49552 5.50005 2.86548 5.50005 4.54925L5.50331 4.75565C5.50331 4.95118 5.41748 5.13707 5.26829 5.2638C5.11994 5.39054 4.92247 5.44485 4.73007 5.41347C4.61166 5.39536 4.48166 5.38571 4.33331 5.38571ZM16.3333 12.8281H4.33331C1.94419 12.8281 0 10.8595 0 8.44065C0 6.06767 1.86924 4.12921 4.19414 4.05438C4.43749 1.86728 6.27582 0.161778 8.50005 0.161778C10.0817 0.161778 11.5234 1.03807 12.2808 2.40319C12.6708 2.26318 13.0825 2.19197 13.5 2.19197C15.3858 2.19197 16.9441 3.64038 17.145 5.49555C18.7875 5.87214 20 7.35796 20 9.11658C20 11.1637 18.355 12.8281 16.3333 12.8281Z" fill="white"/>
</g>
<g id="g38">
<path id="path40" d="M9.99973 20.1602C8.12138 20.1602 6.24391 19.4453 4.81471 18.0156C4.55395 17.7549 4.55395 17.3328 4.81471 17.0731C5.0747 16.8124 5.49722 16.8124 5.75721 17.0731C8.09641 19.4122 11.903 19.4122 14.2422 17.0731C14.5022 16.8124 14.9248 16.8124 15.1847 17.0731C15.4455 17.3328 15.4455 17.7549 15.1847 18.0156C13.7555 19.4453 11.8781 20.1602 9.99973 20.1602Z" fill="white"/>
</g>
<g id="g42">
<path id="path44" d="M9.99938 17.4941C8.80441 17.4941 7.60946 17.0397 6.69942 16.1299C6.43939 15.8697 6.43939 15.4466 6.69942 15.1865C6.95944 14.9263 7.38192 14.9263 7.64194 15.1865C8.94197 16.486 11.0569 16.486 12.3569 15.1865C12.617 14.9263 13.0394 14.9263 13.2994 15.1865C13.5594 15.4466 13.5594 15.8697 13.2994 16.1299C12.3894 17.0397 11.1943 17.4941 9.99938 17.4941Z" fill="white"/>
</g>
<g id="g46">
<path id="path48" d="M9.99993 14.832C9.48746 14.832 8.97579 14.6369 8.58582 14.2477C8.32491 13.9872 8.32491 13.5653 8.58582 13.3047C8.84584 13.0441 9.26829 13.0441 9.5283 13.3047C9.78832 13.5642 10.2117 13.5642 10.4716 13.3047C10.7316 13.0441 11.1542 13.0441 11.4141 13.3047C11.675 13.5653 11.675 13.9872 11.4141 14.2477C11.0241 14.6369 10.5124 14.832 9.99993 14.832Z" fill="white"/>
</g>
</g>
</svg>
